<?xml version="1.0" encoding="utf-8"?>
<!-- Generator: Adobe Illustrator 24.1.0, SVG Export Plug-In . SVG Version: 6.00 Build 0)  -->
<svg version="1.1" id="Layer_1" xmlns="http://www.w3.org/2000/svg" xmlns:xlink="http://www.w3.org/1999/xlink" x="0px" y="0px"
	 viewBox="0 0 84.2 31.2" style="enable-background:new 0 0 84.2 31.2;" xml:space="preserve">
<style type="text/css">
	.st0{fill:#E6E7E8;}
	.st1{fill:#594A42;}
	.st2{fill:#FBB040;}
	.st3{fill:#EC008C;}
	.st4{fill:#ED1C24;}
	.st5{fill:#FFF200;}
	.st6{fill:#00A651;}
	.st7{fill:#00AEEF;}
	.st8{fill:#213652;}
	.st9{fill:#C49A6C;}
	.st10{fill:#A97C50;}
	.st11{display:none;fill:#C49A6C;}
	.st12{fill:#D1D3D4;stroke:#000000;stroke-width:0.25;stroke-miterlimit:10;}
	.st13{fill:#FFFFFF;stroke:#000000;stroke-width:0.25;stroke-miterlimit:10;}
	.st14{fill:none;stroke:#000000;stroke-width:0.25;stroke-miterlimit:10;}
	.st15{fill:#1C75BC;}
	.st16{fill:#754C29;}
	.st17{fill:#1A3562;}
	.st18{font-family:'SavoyeLetPlain';}
	.st19{font-size:16.6838px;}
	.st20{fill:#414042;}
	.st21{font-size:3.792px;}
</style>
<g>
	<g>
		<g>
			<path class="st0" d="M15.8,15.7L10,29.6c-0.1,0.2,0.1,0.5,0.3,0.5h11.5c0.2,0,0.4-0.3,0.3-0.5l-5.8-13.9
				C16.3,15.4,15.9,15.4,15.8,15.7z"/>
		</g>
		<g>
			<path class="st1" d="M15.7,15.4L1.8,21.2c-0.2,0.1-0.3,0.4-0.1,0.6l8.1,8.1c0.2,0.2,0.5,0.1,0.6-0.1l5.8-13.9
				C16.3,15.6,16,15.3,15.7,15.4z"/>
		</g>
		<g>
			<path class="st2" d="M15.9,15.1L2,9.4C1.8,9.3,1.5,9.5,1.5,9.7v11.5c0,0.2,0.3,0.4,0.5,0.3l13.9-5.8
				C16.2,15.7,16.2,15.3,15.9,15.1z"/>
		</g>
		<g>
			<path class="st3" d="M16.2,15.1L10.5,1.2C10.4,1,10.1,0.9,9.9,1.1L1.7,9.2C1.6,9.4,1.6,9.7,1.9,9.8l13.9,5.8
				C16,15.7,16.3,15.4,16.2,15.1z"/>
		</g>
		<g>
			<path class="st4" d="M16.5,15.3l5.8-13.9c0.1-0.2-0.1-0.5-0.3-0.5H10.4c-0.2,0-0.4,0.3-0.3,0.5l5.8,13.9
				C15.9,15.5,16.3,15.5,16.5,15.3z"/>
		</g>
		<g>
			<path class="st5" d="M16.5,15.5l13.9-5.8c0.2-0.1,0.3-0.4,0.1-0.6l-8.1-8.1c-0.2-0.2-0.5-0.1-0.6,0.1l-5.8,13.9
				C15.9,15.4,16.2,15.7,16.5,15.5z"/>
		</g>
		<g>
			<path class="st6" d="M16.3,15.8l13.9,5.8c0.2,0.1,0.5-0.1,0.5-0.3V9.7c0-0.2-0.3-0.4-0.5-0.3l-13.9,5.8
				C16.1,15.3,16.1,15.7,16.3,15.8z"/>
		</g>
		<g>
			<path class="st7" d="M16,15.8l5.8,13.9c0.1,0.2,0.4,0.3,0.6,0.1l8.1-8.1c0.2-0.2,0.1-0.5-0.1-0.6l-13.9-5.8
				C16.2,15.3,15.9,15.6,16,15.8z"/>
		</g>
	</g>
	<g>
		<g>
			<path class="st0" d="M15.7,15.7L11.1,30c-0.1,0.2,0.1,0.5,0.4,0.5l11.5-1c0.2,0,0.4-0.3,0.3-0.5l-6.9-13.3
				C16.2,15.4,15.8,15.4,15.7,15.7z"/>
		</g>
		<g>
			<path class="st1" d="M15.6,15.4L2.2,22.4C2,22.5,2,22.8,2.2,23l8.8,7.4c0.2,0.2,0.5,0.1,0.6-0.2l4.5-14.3
				C16.2,15.6,15.8,15.3,15.6,15.4z"/>
		</g>
		<g>
			<path class="st2" d="M15.7,15.2L1.4,10.6c-0.2-0.1-0.5,0.1-0.5,0.4l1,11.5c0,0.2,0.3,0.4,0.5,0.3l13.3-6.9
				C16.1,15.7,16,15.3,15.7,15.2z"/>
		</g>
		<g>
			<path class="st3" d="M16,15.1L9.1,1.7C9,1.5,8.7,1.5,8.5,1.7l-7.4,8.8C0.9,10.7,1,11,1.3,11.1l14.3,4.5
				C15.9,15.7,16.2,15.4,16,15.1z"/>
		</g>
		<g>
			<path class="st4" d="M16.3,15.2l4.5-14.3c0.1-0.2-0.1-0.5-0.4-0.5L9,1.4c-0.2,0-0.4,0.3-0.3,0.5l6.9,13.3
				C15.8,15.6,16.2,15.5,16.3,15.2z"/>
		</g>
		<g>
			<path class="st5" d="M16.4,15.5l13.3-6.9c0.2-0.1,0.3-0.4,0.1-0.6l-8.8-7.4c-0.2-0.2-0.5-0.1-0.6,0.2l-4.5,14.3
				C15.8,15.4,16.1,15.7,16.4,15.5z"/>
		</g>
		<g>
			<path class="st6" d="M16.2,15.8l14.3,4.5c0.2,0.1,0.5-0.1,0.5-0.4L30,8.5c0-0.2-0.3-0.4-0.5-0.3l-13.3,6.9
				C15.9,15.3,15.9,15.7,16.2,15.8z"/>
		</g>
		<g>
			<path class="st7" d="M15.9,15.9l6.9,13.3c0.1,0.2,0.4,0.3,0.6,0.1l7.4-8.8c0.2-0.2,0.1-0.5-0.2-0.6l-14.3-4.5
				C16,15.3,15.8,15.6,15.9,15.9z"/>
		</g>
	</g>
	<g>
		<g>
			<path class="st0" d="M15.7,15.9l-3.3,14.7c-0.1,0.2,0.2,0.5,0.4,0.4l11.3-2c0.2,0,0.4-0.3,0.2-0.5l-8.1-12.7
				C16.1,15.5,15.7,15.6,15.7,15.9z"/>
		</g>
		<g>
			<path class="st1" d="M15.6,15.6L2.9,23.7c-0.2,0.1-0.2,0.4,0,0.6l9.4,6.6c0.2,0.1,0.5,0,0.5-0.2L16.1,16
				C16.2,15.7,15.8,15.4,15.6,15.6z"/>
		</g>
		<g>
			<path class="st2" d="M15.7,15.3L1,12c-0.2-0.1-0.5,0.2-0.4,0.4l2,11.3c0,0.2,0.3,0.4,0.5,0.2l12.7-8.1
				C16.1,15.8,16,15.4,15.7,15.3z"/>
		</g>
		<g>
			<path class="st3" d="M16,15.2L7.9,2.5c-0.1-0.2-0.4-0.2-0.6,0l-6.6,9.4c-0.1,0.2,0,0.5,0.2,0.5l14.7,3.3
				C15.9,15.8,16.1,15.5,16,15.2z"/>
		</g>
		<g>
			<path class="st4" d="M16.2,15.3l3.3-14.7c0.1-0.2-0.2-0.5-0.4-0.4l-11.3,2c-0.2,0-0.4,0.3-0.2,0.5l8.1,12.7
				C15.8,15.7,16.2,15.6,16.2,15.3z"/>
		</g>
		<g>
			<path class="st5" d="M16.4,15.6L29,7.5c0.2-0.1,0.2-0.4,0-0.6l-9.4-6.6c-0.2-0.1-0.5,0-0.5,0.2l-3.3,14.7
				C15.8,15.5,16.1,15.8,16.4,15.6z"/>
		</g>
		<g>
			<path class="st6" d="M16.2,15.9l14.7,3.3c0.2,0.1,0.5-0.2,0.4-0.4l-2-11.3c0-0.2-0.3-0.4-0.5-0.2l-12.7,8.1
				C15.9,15.4,15.9,15.8,16.2,15.9z"/>
		</g>
		<g>
			<path class="st7" d="M16,16L24,28.7c0.1,0.2,0.4,0.2,0.6,0l6.6-9.4c0.1-0.2,0-0.5-0.2-0.5l-14.7-3.3C16,15.4,15.8,15.7,16,16z"/>
		</g>
	</g>
</g>
<g>
	<g>
		<g>
			<path class="st8" d="M15.8,15.7L10,29.6c-0.1,0.2,0.1,0.5,0.3,0.5h11.5c0.2,0,0.4-0.3,0.3-0.5l-5.8-13.9
				C16.3,15.4,15.9,15.4,15.8,15.7z"/>
		</g>
		<g>
			<path class="st8" d="M15.7,15.4L1.8,21.2c-0.2,0.1-0.3,0.4-0.1,0.6l8.1,8.1c0.2,0.2,0.5,0.1,0.6-0.1l5.8-13.9
				C16.3,15.6,16,15.3,15.7,15.4z"/>
		</g>
		<g>
			<path class="st8" d="M15.9,15.1L2,9.4C1.8,9.3,1.5,9.5,1.5,9.7v11.5c0,0.2,0.3,0.4,0.5,0.3l13.9-5.8
				C16.2,15.7,16.2,15.3,15.9,15.1z"/>
		</g>
		<g>
			<path class="st8" d="M16.2,15.1L10.5,1.2C10.4,1,10.1,0.9,9.9,1.1L1.7,9.2C1.6,9.4,1.6,9.7,1.9,9.8l13.9,5.8
				C16,15.7,16.3,15.4,16.2,15.1z"/>
		</g>
		<g>
			<path class="st8" d="M16.5,15.3l5.8-13.9c0.1-0.2-0.1-0.5-0.3-0.5H10.4c-0.2,0-0.4,0.3-0.3,0.5l5.8,13.9
				C15.9,15.5,16.3,15.5,16.5,15.3z"/>
		</g>
		<g>
			<path class="st8" d="M16.5,15.5l13.9-5.8c0.2-0.1,0.3-0.4,0.1-0.6l-8.1-8.1c-0.2-0.2-0.5-0.1-0.6,0.1l-5.8,13.9
				C15.9,15.4,16.2,15.7,16.5,15.5z"/>
		</g>
		<g>
			<path class="st8" d="M16.3,15.8l13.9,5.8c0.2,0.1,0.5-0.1,0.5-0.3V9.7c0-0.2-0.3-0.4-0.5-0.3l-13.9,5.8
				C16.1,15.3,16.1,15.7,16.3,15.8z"/>
		</g>
		<g>
			<path class="st8" d="M16,15.9l5.8,13.9c0.1,0.2,0.4,0.3,0.6,0.1l8.1-8.1c0.2-0.2,0.1-0.5-0.1-0.6l-13.9-5.8
				C16.2,15.3,15.9,15.6,16,15.9z"/>
		</g>
	</g>
	<g>
		<path class="st8" d="M15.7,15.7l-4.5,14.3c-0.1,0.2,0.1,0.5,0.4,0.5l11.5-1c0.2,0,0.4-0.3,0.3-0.5l-6.9-13.3
			C16.2,15.4,15.8,15.4,15.7,15.7z"/>
	</g>
	<g>
		<path class="st8" d="M15.6,15.4L2.2,22.4C2,22.5,2,22.8,2.2,23l8.8,7.4c0.2,0.2,0.5,0.1,0.6-0.2l4.5-14.3
			C16.2,15.6,15.8,15.3,15.6,15.4z"/>
	</g>
	<g>
		<path class="st8" d="M15.7,15.2L1.4,10.6c-0.2-0.1-0.5,0.1-0.5,0.4l1,11.5c0,0.2,0.3,0.4,0.5,0.3l13.3-6.9
			C16.1,15.7,16,15.3,15.7,15.2z"/>
	</g>
	<g>
		<path class="st8" d="M16,15.1L9.1,1.7C9,1.5,8.7,1.5,8.5,1.7l-7.4,8.8C0.9,10.7,1,11,1.3,11.1l14.3,4.5
			C15.9,15.7,16.2,15.4,16,15.1z"/>
	</g>
	<g>
		<path class="st8" d="M16.3,15.2l4.5-14.3c0.1-0.2-0.1-0.5-0.4-0.5L9,1.4c-0.2,0-0.4,0.3-0.3,0.5l6.9,13.3
			C15.8,15.6,16.2,15.5,16.3,15.2z"/>
	</g>
	<g>
		<path class="st8" d="M16.4,15.5l13.3-6.9c0.2-0.1,0.3-0.4,0.1-0.6l-8.8-7.4c-0.2-0.2-0.5-0.1-0.6,0.2l-4.5,14.3
			C15.8,15.4,16.1,15.7,16.4,15.5z"/>
	</g>
	<g>
		<path class="st8" d="M16.2,15.8l14.3,4.5c0.2,0.1,0.5-0.1,0.5-0.4L30,8.5c0-0.2-0.3-0.4-0.5-0.3l-13.3,6.9
			C15.9,15.3,15.9,15.7,16.2,15.8z"/>
	</g>
	<g>
		<path class="st8" d="M15.9,15.9l6.9,13.3c0.1,0.2,0.4,0.3,0.6,0.1l7.4-8.8c0.2-0.2,0.1-0.5-0.2-0.6l-14.3-4.5
			C16,15.3,15.8,15.6,15.9,15.9z"/>
	</g>
	<g>
		<path class="st8" d="M15.7,15.9l-3.3,14.7c-0.1,0.2,0.2,0.5,0.4,0.4l11.3-2c0.2,0,0.4-0.3,0.2-0.5l-8.1-12.7
			C16.1,15.5,15.7,15.6,15.7,15.9z"/>
	</g>
	<g>
		<path class="st8" d="M15.6,15.6L2.9,23.7c-0.2,0.1-0.2,0.4,0,0.6l9.4,6.6c0.2,0.1,0.5,0,0.5-0.2L16.1,16
			C16.2,15.7,15.8,15.4,15.6,15.6z"/>
	</g>
	<g>
		<path class="st8" d="M15.7,15.3L1,12.1c-0.2-0.1-0.5,0.2-0.4,0.4l2,11.3c0,0.2,0.3,0.4,0.5,0.2l12.7-8.1
			C16.1,15.8,16,15.4,15.7,15.3z"/>
	</g>
	<g>
		<path class="st8" d="M16,15.2L7.9,2.5c-0.1-0.2-0.4-0.2-0.6,0l-6.6,9.4c-0.1,0.2,0,0.5,0.2,0.5l14.7,3.3
			C15.9,15.8,16.1,15.5,16,15.2z"/>
	</g>
	<g>
		<path class="st8" d="M16.2,15.3l3.3-14.7c0.1-0.2-0.2-0.5-0.4-0.4l-11.3,2c-0.2,0-0.4,0.3-0.2,0.5l8.1,12.7
			C15.8,15.7,16.2,15.6,16.2,15.3z"/>
	</g>
	<g>
		<path class="st8" d="M16.4,15.6L29,7.5c0.2-0.1,0.2-0.4,0-0.6l-9.4-6.6c-0.2-0.1-0.5,0-0.5,0.2l-3.3,14.7
			C15.8,15.5,16.1,15.8,16.4,15.6z"/>
	</g>
	<g>
		<path class="st8" d="M16.2,15.9l14.7,3.3c0.2,0.1,0.5-0.2,0.4-0.4l-2-11.3c0-0.2-0.3-0.4-0.5-0.2l-12.7,8.1
			C15.9,15.4,15.9,15.8,16.2,15.9z"/>
	</g>
	<g>
		<path class="st8" d="M16,16L24,28.7c0.1,0.2,0.4,0.2,0.6,0l6.6-9.4c0.1-0.2,0-0.5-0.2-0.5l-14.7-3.3C16,15.4,15.8,15.7,16,16z"/>
	</g>
</g>
<g id="Ear_3_">
	<g>
		<path class="st9" d="M25.8,15.4l1.1-0.7l0.9-0.7c0.3-0.2,0.5-0.5,0.6-0.8l0.4-0.8c0.1-0.2,0.2-0.4,0.2-0.7l0.1-0.5
			c0.1-0.4,0.1-0.8,0-1.3l0-0.1c-0.1-0.4-0.1-0.7-0.3-1c0-0.1-0.1-0.1-0.1-0.2l-0.1-0.1c-0.1-0.1-0.2-0.2-0.3-0.3l-0.1-0.1
			C28,8,27.6,7.9,27.2,7.8l-0.1,0c-0.2,0-0.4,0-0.5,0l-0.1,0c-0.4,0.1-0.7,0.2-1,0.4l-0.2,0.1c-0.3,0.2-0.6,0.4-0.9,0.7l-0.2,0.1
			c-0.3,0.2-0.5,0.5-0.8,0.8l-0.6,0.9"/>
		<path class="st10" d="M23.7,12.2l1.4-1.5l0.4-0.4c0.2-0.3,0.6-0.5,0.9-0.6h0l0.2,0c0.2,0,0.5,0.1,0.7,0.3v0v0
			c0.2,0.2,0.2,0.4,0.2,0.7c0,0.1,0,0.2,0,0.3l0,0c0,0.1,0,0.1,0,0.2v0c0,0.4-0.1,0.8-0.4,1.2l0,0c-0.1,0.1-0.1,0.2-0.2,0.2
			l-0.5,0.6c-0.1,0.1-0.2,0.2-0.3,0.3l-0.4,0.4c0,0-0.6,0.5-0.7,0.6"/>
	</g>
	<g>
		<path class="st9" d="M2.7,10.5c0.2-1.6,1.1-2.9,1.8-2.9"/>
		<path class="st9" d="M4.5,7.6L4.5,7.6c0.2,0,0.4,0,0.6,0l0,0C5.5,7.7,6,7.7,6.4,8l0,0c0.4,0.2,0.7,0.6,1,0.8l0.1,0.1
			c0.1,0.1,1.2,1.2,1.3,1.6l-2.9,4.9l-1.8-1.5c-0.9-0.9-1.5-2.1-1.4-3.4"/>
		<path class="st9" d="M6.4,14.4"/>
		<path class="st10" d="M4.4,9.4c-1.1,1,0.6,3.7,1.9,5L8,11.8c-0.1-0.2-0.3-0.3-0.5-0.5l0,0l-0.8-1.2L6.3,9.7
			C6.1,9.4,5.7,9.2,5.4,9.1h0l-0.2,0C4.9,9.1,4.6,9.2,4.4,9.4L4.4,9.4L4.4,9.4"/>
	</g>
</g>
<g id="Face_3_">
	<path class="st9" d="M27.7,18.9c-0.2-0.4-0.6-1.3-0.8-1.7c-0.2-0.4-0.6-1.3-0.8-1.7c-0.3-0.5-0.9-1.5-1.3-2c-0.5-0.8-1.3-2-1.7-2.6
		c-0.2-0.3-0.6-1.1-0.8-1.4c-0.3-0.4-1.1-1-1.5-1.3c-0.3-0.2-0.9-0.5-1.4-0.7C18.7,7.2,18,7.1,17.6,7c-0.3,0-1-0.1-1.3-0.1
		C16,6.9,14.9,7,14.9,7l0,0c-0.6,0.1-1.2,0.2-1.7,0.4l-0.3,0.1c-0.4,0.1-0.8,0.3-1.1,0.4l0,0c-0.5,0.2-0.9,0.5-1.3,0.7l0,0
		c-0.3,0.2-0.6,0.5-0.8,0.8l0,0C9.5,9.6,9.4,9.7,9.3,9.9l0,0c-0.3,0.4-0.4,0.6-0.7,1l0,0L8,11.8l-0.6,0.9L7,13.1
		c-0.2,0.4-0.5,0.7-0.6,1.1l0,0c-0.1,0.2-0.2,0.5-0.3,0.7l-0.3,0.8v0c-0.3,0.6-0.5,0.9-0.7,1.5c0,0,0,0.2,0,0.2l0,0.2
		c0,0.2-0.1,0.5-0.2,0.7c-0.3,0.6-0.5,1.3-0.7,1.7l-0.1,0.2L4,20.4c-0.1,0.2-0.2,0.4-0.3,0.6l-0.1,0.3c0,0,0,0.1,0,0.1h0
		c0.1,0.1,0.2,0.1,0.2,0l0-0.1c0-0.1,0.1-0.2,0.2-0.3l0.1-0.1l0,0c0.1-0.1,0.3,0,0.3,0.1l0.1,0.4v0.2c0,0.2,0,0.4-0.1,0.6l-0.1,0.3
		l0,0c-0.1,0.2,0,0.4,0.2,0.5h0.2l0,0C5,22.8,5,22.9,5.1,23l0,0l0,0.1c0,0.1,0,0.3-0.1,0.4l-0.1,0.3c0,0-0.2,0.4,0.4,0.3
		C6,24,6.1,23.7,6.1,23.7l0,0c0,0,0.1-0.2,0,0.2C6,24,6,24.1,6,24.2c-0.1,0.2-0.1,0.4-0.1,0.6l0,0C5.9,24.9,6,25,6.1,25l0,0l0.1,0.2
		l0,0c0.1,0.2,0.2,0.3,0.4,0.3h0L7,25.3c0,0,0.1,0.5,0.3,0.6c0,0,0.1,0.1,0.2,0.1c0.1,0.1,0.3,0.1,0.4,0h0l0.5,0.5l0.9,0.5l0.7,0.6
		l2.4,1.2l1.2,0.4c0.2,0.1,0.4,0.1,0.6,0.2h0c0.4,0.1,0.8,0.1,1.2,0.1h2.5c0.3,0,0.6-0.1,0.9-0.2h0l0.3-0.1c0.5-0.1,0.9-0.3,1.4-0.5
		l0.9-0.5l1.5-1l1.4-1l0.7-0.5l0.4-0.4c0-0.1,0.1-0.1,0.2-0.1h0c0.2,0,0.3,0,0.5,0h0c0,0,0,0,0.1,0l0.2-0.2c0.1-0.1,0.2-0.2,0.3-0.3
		l0,0l-0.2-0.4l-0.2-0.6c0,0-0.1-0.1,0.2-0.1c0.3,0,0.5,0.4,0.5,0.4s0.3,0.4,0.5,0c0.2-0.4,0-1.2,0-1.2l0.1,0c0.2,0,0.4-0.2,0.5-0.4
		l0,0l-0.1-1.4c0-0.2,0.1-0.4,0.4-0.1l0,0c0.2,0.2,0.4,0.1,0.5-0.2l0,0L27.7,18.9z"/>
	<polygon class="st11" points="5.1,17.5 6.1,23.7 28.6,20.8 	"/>
</g>
<path class="st12" d="M17.7,28.8l1-3.6c2.4,0.4,4.8-0.4,5.3-3c0.2-1.3-1.1-2.6-3.7-2.4c-0.1,1.8-2,2.5-4.1,2.7
	c-2,0.2-4.4-0.8-4.3-2.4c-1.4-1.1-3.7,0.4-3.8,2.1c0,1.6,2.2,3.3,5.5,3l0.9,3.6L17.7,28.8z"/>
<path class="st12" d="M20.3,19.9c0,3.4-8.9,3.8-8.4,0c0.2-1.7,2.9-2.8,4.2-2.8C17.3,17.1,20.3,18.3,20.3,19.9z"/>
<g>
	<path class="st13" d="M16.2,24.1l0.6,0.5c0.4,0.2,0.9,0.4,1.4,0.5l0.5,0.1l-1,3.6h-1.5v-6.2V24.1z"/>
	<path class="st13" d="M16.1,24.1l-0.5,0.5c-0.4,0.3-1,0.5-1.5,0.5l-0.6,0.1l1,3.6h1.5v-6.2V24.1z"/>
</g>
<g id="Eye_3_">
	<g>
		<g>
			<path class="st13" d="M14.5,15.3c0.1,1,0.4,0.5-1.8,1.3c-2.7,1-1.9,2.6-2.4-0.9c-0.2-1.9,0.6-3.5,1.7-3.6S14.3,13.5,14.5,15.3z"
				/>
			<path class="st14" d="M14.5,16.1c-1.7,0.2-4.1,1.7-4.3,2.4"/>
		</g>
		<g>
			<path class="st13" d="M18.2,15.9c0.2,1-0.5,0.5,1.8,1.1c2.2,0.6,1.9,1,2.2-1.2c0.2-1.4-0.7-3.4-1.9-3.5S17.7,13.6,18.2,15.9z"/>
			<path class="st13" d="M18.3,16.5c1.6,0.4,2.8,0.8,3.6,1"/>
		</g>
	</g>
	
		<ellipse transform="matrix(7.330939e-02 -0.9973 0.9973 7.330939e-02 4.1002 33.4553)" class="st15" cx="20.1" cy="14.5" rx="1.5" ry="0.9"/>
	<ellipse transform="matrix(0.9923 -0.1241 0.1241 0.9923 -1.7455 1.6506)" class="st15" cx="12.4" cy="14.8" rx="0.9" ry="1.5"/>
</g>
<g id="Eyebrow_3_">
	<path class="st16" d="M19.6,10.6c-0.3,0.6,0,0.7,0.4,0.8c0.2,0,0.3,0,0.4,0c0.8,0,0.9,0,1.5,0.1c0-0.2,0-0.4-0.2-0.8
		c-0.1-0.3-0.2-0.5-1-0.6C20,10.1,19.8,10.2,19.6,10.6C19.7,10.6,19.6,10.6,19.6,10.6z"/>
	<path class="st16" d="M11.3,11.3c0.1,0,0.2-0.1,0.3-0.1c0.1,0,0.2,0,0.4-0.1c0.4-0.1,1.1,0,1.6,0c0.1,0,0.2,0,0.2-0.1
		c0.1-0.1,0.1-0.3,0.1-0.5c-0.1-0.4-0.8-0.6-1.6-0.4s-1.4,0.7-1.2,1C11.2,11.3,11.2,11.3,11.3,11.3z"/>
</g>
<g id="Mustach_3_">
	<path class="st14" d="M10.7,20.9l-3.1,0c-1.4,0-2.8,0.3-4.1,0.9l-0.7,0.3"/>
	<path class="st14" d="M9.6,22.2l-1.9,0.3c-0.7,0.1-3.9,1.4-5,2.6"/>
	<path class="st14" d="M10.1,23.3l-1.7,0.6c0,0-0.1,0-0.1,0c-0.9,0.4-1.7,0.8-2.5,1.4l-1.6,1.1"/>
	<path class="st14" d="M21.5,21l3.6-0.3c0.2,0,0.4,0,0.7,0l0.1,0c0.8,0,1.6,0.3,2.3,0.6l1.4,0.8"/>
	<path class="st14" d="M22.6,22.2l1.3,0.2c1.1,0.2,2.2,0.5,3.2,1.1l1.3,0.8"/>
	<path class="st14" d="M22.1,23.1l1.9,1.1c0.5,0.3,1,0.7,1.5,1l1.6,1.3"/>
</g>
<text transform="matrix(1 0 0 1 31.9425 21.3171)" class="st17 st18 st19">The Beaver</text>
<text transform="matrix(1 0 0 1 60.8312 15.6618)" class="st20 st18 st21">Be Aware...!</text>
<line class="st14" x1="16.2" y1="22.6" x2="16.2" y2="28.9"/>
<path class="st14" d="M13.6,25.3c1-0.2,1.8-0.2,2.6-1.2"/>
<path class="st14" d="M18.8,25.3c-1-0.2-1.8-0.2-2.6-1.2"/>
</svg>
